<svg width="15" height="15" viewBox="0 0 15 15" fill="none" xmlns="http://www.w3.org/2000/svg">
<path d="M2.4692 15C1.46484 15 0.900273 13.8445 1.51754 13.0522L6.08691 7.18716C6.22743 7.00679 6.51667 7.10952 6.51195 7.33811V7.33811C6.50733 7.56204 6.22384 7.65583 6.08658 7.47884L1.79879 1.95023C1.1826 1.15573 1.74884 0 2.75428 0V0C3.12944 0 3.48335 0.174133 3.71227 0.471356L7.74307 5.70489C7.88929 5.89474 7.75395 6.16981 7.51431 6.16981V6.16981C7.27467 6.16981 7.13933 5.89475 7.28556 5.70489L11.3243 0.461016C11.5482 0.170314 11.8944 0 12.2613 0V0C13.2465 0 13.7998 1.13396 13.1935 1.91048L8.84707 7.47731C8.69989 7.66581 8.39747 7.55837 8.40221 7.31926V7.31926C8.40685 7.08552 8.70211 6.98665 8.84657 7.17046L13.4457 13.0223C14.076 13.8243 13.5047 15 12.4847 15V15C12.1035 15 11.7441 14.8222 11.5129 14.5191L7.27668 8.9667C7.12897 8.7731 7.29194 8.49811 7.53269 8.53473V8.53473C7.73659 8.56574 7.83236 8.8042 7.70656 8.96763L3.42517 14.5295C3.19679 14.8262 2.84361 15 2.4692 15V15Z" />
</svg>