<svg width="32" height="32" viewBox="0 0 32 32" fill="none" xmlns="http://www.w3.org/2000/svg">
<path d="M16.0366 1.67494C16.0435 1.44662 16.0021 1.21941 15.9153 1.00811C15.8285 0.796823 15.6982 0.606191 15.5328 0.448643C15.3673 0.291095 15.1706 0.170165 14.9553 0.0937311C14.7401 0.017297 14.5111 -0.0129256 14.2834 0.00503323C11.2784 0.337142 8.42829 1.51147 6.06155 3.39271C3.6948 5.27395 1.90769 7.78556 0.906106 10.6382C-0.0954753 13.4908 -0.270777 16.5683 0.40041 19.5162C1.0716 22.4641 2.56196 25.1624 4.69978 27.3002C6.8376 29.438 9.53589 30.9284 12.4838 31.5996C15.4317 32.2708 18.5092 32.0955 21.3618 31.0939C24.2144 30.0923 26.726 28.3052 28.6073 25.9385C30.4885 23.5717 31.6629 20.7216 31.995 17.7166C32.0129 17.4889 31.9827 17.2599 31.9063 17.0447C31.8298 16.8294 31.7089 16.6327 31.5514 16.4672C31.3938 16.3018 31.2032 16.1715 30.9919 16.0847C30.7806 15.9979 30.5534 15.9565 30.3251 15.9634V15.9634C29.8528 15.9823 29.4029 16.1693 29.0565 16.4908C28.7101 16.8123 28.49 17.2471 28.436 17.7166C28.1082 20.0175 27.1461 22.1816 25.6575 23.9665C24.1689 25.7513 22.2127 27.0863 20.008 27.8219C17.8033 28.5574 15.4374 28.6645 13.1753 28.131C10.9133 27.5975 8.84446 26.4445 7.2008 24.8014C5.55714 23.1582 4.40357 21.0898 3.86938 18.8279C3.33518 16.566 3.44147 14.2 4.17634 11.9951C4.91121 9.79023 6.24561 7.83357 8.03 6.34442C9.81438 4.85528 11.9782 3.8925 14.279 3.564C14.7485 3.51001 15.1833 3.28994 15.5048 2.94353C15.8263 2.59711 16.0133 2.14718 16.0322 1.67494H16.0366Z" />
</svg>