<svg width="32" height="32" viewBox="0 0 32 32" fill="none" xmlns="http://www.w3.org/2000/svg">
<g clip-path="url(#clip0_328_30)">
<path d="M20.6666 18.6666H19.6133L19.24 18.3066C20.84 16.44 21.6666 13.8933 21.2133 11.1866C20.5866 7.47998 17.4933 4.51998 13.76 4.06665C8.11998 3.37331 3.37331 8.11998 4.06665 13.76C4.51998 17.4933 7.47998 20.5866 11.1866 21.2133C13.8933 21.6666 16.44 20.84 18.3066 19.24L18.6666 19.6133V20.6666L24.3333 26.3333C24.88 26.88 25.7733 26.88 26.32 26.3333C26.8666 25.7866 26.8666 24.8933 26.32 24.3466L20.6666 18.6666ZM12.6666 18.6666C9.34665 18.6666 6.66665 15.9866 6.66665 12.6666C6.66665 9.34665 9.34665 6.66665 12.6666 6.66665C15.9866 6.66665 18.6666 9.34665 18.6666 12.6666C18.6666 15.9866 15.9866 18.6666 12.6666 18.6666Z"/>
</g>
<defs>
<clipPath id="clip0_328_30">
<rect width="32" height="32" fill="white"/>
</clipPath>
</defs>
</svg>
