<svg width="32" height="32" viewBox="0 0 32 32" fill="none" xmlns="http://www.w3.org/2000/svg">
<rect width="32" height="32" rx="16" fill="white"/>
<path d="M15.6667 29.3C12.8444 29.3 10.3611 28.3167 8.21667 26.35C6.07222 24.3833 5 21.7222 5 18.3667C5 16.2333 5.81667 13.9167 7.45 11.4167C9.08333 8.91667 11.5667 6.21111 14.9 3.3C15.0111 3.21111 15.1333 3.13889 15.2667 3.08333C15.4 3.02778 15.5333 3 15.6667 3C15.8 3 15.9333 3.02778 16.0667 3.08333C16.2 3.13889 16.3222 3.21111 16.4333 3.3C19.7667 6.21111 22.25 8.91667 23.8833 11.4167C25.5167 13.9167 26.3333 16.2333 26.3333 18.3667C26.3333 21.7222 25.2611 24.3833 23.1167 26.35C20.9722 28.3167 18.4889 29.3 15.6667 29.3ZM15.6667 27.3C18.1111 27.3 20.1667 26.4556 21.8333 24.7667C23.5 23.0778 24.3333 20.9444 24.3333 18.3667C24.3333 16.6111 23.5944 14.6167 22.1167 12.3833C20.6389 10.15 18.4889 7.78889 15.6667 5.3C12.8444 7.78889 10.6944 10.15 9.21667 12.3833C7.73889 14.6167 7 16.6111 7 18.3667C7 20.9444 7.83333 23.0778 9.5 24.7667C11.1667 26.4556 13.2222 27.3 15.6667 27.3ZM15.6333 25.0333C15.9889 25.0333 16.2611 24.9722 16.45 24.85C16.6389 24.7278 16.7333 24.5444 16.7333 24.3C16.7333 24.0556 16.6389 23.8667 16.45 23.7333C16.2611 23.6 15.9778 23.5333 15.6 23.5333C14.6667 23.5333 13.7167 23.2389 12.75 22.65C11.7833 22.0611 11.1667 21.0222 10.9 19.5333C10.8556 19.3333 10.7556 19.1722 10.6 19.05C10.4444 18.9278 10.2778 18.8667 10.1 18.8667C9.85556 18.8667 9.66667 18.9611 9.53333 19.15C9.4 19.3389 9.35556 19.5333 9.4 19.7333C9.73333 21.6 10.5222 22.95 11.7667 23.7833C13.0111 24.6167 14.3 25.0333 15.6333 25.0333Z" fill="#4892BC"/>
</svg>
